<svg xmlns="http://www.w3.org/2000/svg" viewBox="0 0 31.5 29.25"><defs><style>.cls-1{fill:#3d3d3d;}.cls-2{fill:#191c1c;}.cls-3{fill:#fff;}.cls-4{fill:#ed1b24;}.cls-5{fill:#eaeaea;}.cls-6{fill:#f01d2e;}</style></defs><g id="Layer_2" data-name="Layer 2"><g id="audiobook"><path class="cls-1" d="M9.66,28.57A1.51,1.51,0,0,1,8.1,27.13V10.67A1.51,1.51,0,0,1,9.66,9.22H23.4V24.94H9.85A1.61,1.61,0,0,0,8.2,26.5v.17a1.61,1.61,0,0,0,1.65,1.55H23.4v.35Z"/><path class="cls-2" d="M23.18,9.44V24.72H9.85a1.88,1.88,0,0,0-1.53.76V10.67A1.29,1.29,0,0,1,9.66,9.44H23.18M23.63,9h-14a1.72,1.72,0,0,0-1.78,1.67V27.13a1.72,1.72,0,0,0,1.78,1.66h14V28H9.85a1.39,1.39,0,0,1-1.43-1.33V26.5a1.39,1.39,0,0,1,1.43-1.34H23.63V9Z"/><ellipse class="cls-3" cx="15.75" cy="16.59" rx="3.07" ry="2.86"/><polygon class="cls-4" points="14.51 18.34 14.5 16.59 14.48 14.85 16.11 15.71 17.74 16.57 16.13 17.45 14.51 18.34"/><path class="cls-1" d="M24.89,12.15V27c3.66,0,6.61-3.34,6.61-7.42S28.55,12.19,24.89,12.15Z"/><path class="cls-1" d="M6.61,12.15V27C3,27,0,23.66,0,19.58S3,12.19,6.61,12.15Z"/><path class="cls-1" d="M3.78,14.85c0-7.35,5.37-13.33,12-13.33s12,6,12,13.33h1.36c0-8.2-6-14.85-13.33-14.85S2.42,6.65,2.42,14.85Z"/><path class="cls-5" d="M9.84,25.16H23.63a0,0,0,0,1,0,0V28a0,0,0,0,1,0,0H9.84a1.42,1.42,0,0,1-1.42-1.42v0a1.42,1.42,0,0,1,1.42-1.42Z"/><polygon class="cls-6" points="10.32 26.93 10.32 29.25 10.51 29.25 10.83 28.75 11.33 27.93 11.83 28.75 12.14 29.25 12.33 29.25 12.33 26.93 10.32 26.93"/></g></g></svg>