<svg xmlns="http://www.w3.org/2000/svg" viewBox="0 0 22.5 27"><defs><style>.cls-1{fill:#3d3d3d;}.cls-2{fill:#191c1c;}.cls-3{fill:#eaeaea;}.cls-4{fill:#f01d2e;}</style></defs><g id="Layer_2" data-name="Layer 2"><g id="home"><path class="cls-1" d="M2.55,26.17a2.19,2.19,0,0,1-2.33-2v-22a2.19,2.19,0,0,1,2.33-2H22.28V21.33H2.82a2.15,2.15,0,0,0-2.26,2v.22a2.14,2.14,0,0,0,2.26,2H22.28v.62Z"/><path class="cls-2" d="M22.06.44V21.11H2.82A2.46,2.46,0,0,0,.44,22.7V2.22A2,2,0,0,1,2.55.44H22.06M.44,24.18a2.46,2.46,0,0,0,2.38,1.59H22.06V26H2.55A2,2,0,0,1,.44,24.18M22.5,0H2.55A2.4,2.4,0,0,0,0,2.22v22a2.4,2.4,0,0,0,2.55,2.22h20V25.33H2.82a1.93,1.93,0,0,1-2-1.78v-.22a1.93,1.93,0,0,1,2-1.78H22.5V0Z"/><path class="cls-3" d="M2.67,21.55H22.5a0,0,0,0,1,0,0v3.78a0,0,0,0,1,0,0H2.67A1.89,1.89,0,0,1,.78,23.44v0a1.89,1.89,0,0,1,1.89-1.89Z"/><polygon class="cls-4" points="3.5 23.9 3.5 27 3.77 27 4.21 26.33 4.93 25.25 5.65 26.33 6.09 27 6.37 27 6.37 23.9 3.5 23.9"/></g></g></svg>