<?xml version="1.0" encoding="utf-8"?>
<!-- Generator: Adobe Illustrator 26.0.3, SVG Export Plug-In . SVG Version: 6.00 Build 0)  -->
<svg version="1.1" id="cart_00000158720918014338503860000003329932227205520532_"
	 xmlns="http://www.w3.org/2000/svg" xmlns:xlink="http://www.w3.org/1999/xlink" x="0px" y="0px" viewBox="0 0 26 25"
	 style="enable-background:new 0 0 26 25;" xml:space="preserve">
<style type="text/css">
	.st0{fill:none;stroke:#F5F5F5;stroke-width:2;stroke-miterlimit:10;}
	.st1{fill:none;stroke:#F5F5F5;stroke-width:2;stroke-linecap:round;stroke-miterlimit:10;}
	.st2{fill:#F5F5F5;}
</style>
<g id="cart">
	<path class="st0" d="M22,16.1H9.1c-0.6,0.1-1.1-0.4-1.2-1c0,0,0,0,0,0L5.6,5.3c0-0.9,0.6-1.6,1.5-1.6c0,0,0,0,0,0h16.4
		c0.9,0,1.5,0.7,1.5,1.6c0,0,0,0,0,0l-1.8,9.9C23.1,15.7,22.6,16.1,22,16.1z"/>
	<line class="st1" x1="23.1" y1="18.8" x2="8.7" y2="18.8"/>
	<line class="st1" x1="4.4" y1="1.1" x2="8.7" y2="18.7"/>
	<line class="st1" x1="4.2" y1="1" x2="1" y2="1"/>
	<ellipse class="st2" cx="20.4" cy="23.2" rx="1.9" ry="1.8"/>
	<ellipse class="st2" cx="12.1" cy="23.2" rx="1.9" ry="1.8"/>
</g>
</svg>
