<svg xmlns="http://www.w3.org/2000/svg" viewBox="0 0 172.82 156.16"><defs><style>.cls-1{fill:#f2ce7e;}</style></defs><g id="Layer_2" data-name="Layer 2"><g id="contact"><g id="Layer_2-2" data-name="Layer 2"><g id="_ëîé_1" data-name=" ëîé 1"><path class="cls-1" d="M87.36,14.68h-.94A61.1,61.1,0,0,0,32.23,104l-3.71,21a7.33,7.33,0,0,0,7.19,8.61,8.05,8.05,0,0,0,1.3-.11l20.92-3.69a60.9,60.9,0,0,0,28.48,7h.85a61.1,61.1,0,0,0,.1-122.18Zm39.11,100.59A55.87,55.87,0,0,1,87.19,132h-.78a56.28,56.28,0,0,1-26.2-6.47l-1.48-.79-1.65.3-20.91,3.69a3.42,3.42,0,0,1-.45,0,2.45,2.45,0,0,1-2.38-2.88l3.71-21,.28-1.64-.77-1.47a56.17,56.17,0,0,1-1.9-47.85,56.77,56.77,0,0,1,30-29.9,55.5,55.5,0,0,1,21.79-4.41h.87a56.25,56.25,0,0,1,39.18,95.69Z"/><path class="cls-1" d="M86.46,151.44v-4.88A70.84,70.84,0,0,0,136.55,25.64,70.82,70.82,0,0,0,15.63,75.72a72.54,72.54,0,0,0,1,12c.2,1.14-.06,2.34.19,3.47l-4.3,1a76.62,76.62,0,0,1-1.77-16.4A75.72,75.72,0,0,1,140,22.18,75.72,75.72,0,0,1,86.46,151.44Z"/><path class="cls-1" d="M172.82,75.72c0,12.41-4.47,22.46-10,22.46-2.25,0-4.33-1.68-6-4.52-2.42-4.1,1.34-10.61,1.34-17.94s-3.76-13.8-1.36-17.9c1.67-2.85,3.76-4.55,6-4.55C168.35,53.26,172.82,63.32,172.82,75.72Z"/><path class="cls-1" d="M0,75.72C0,88.13,4.47,98.18,10,98.18c2.26,0,4.34-1.68,6-4.52,2.42-4.1-1.34-10.61-1.34-17.94s3.76-13.8,1.36-17.9c-1.68-2.85-3.76-4.55-6-4.55C4.47,53.26,0,63.32,0,75.72Z"/><ellipse class="cls-1" cx="86.41" cy="148.83" rx="12.59" ry="7.33"/></g></g></g></g></svg>