<svg xmlns="http://www.w3.org/2000/svg" viewBox="0 0 56 56"><defs><style>.cls-1{fill:#3d3d3d;}.cls-2{fill:#fff;}</style></defs><g id="Layer_2" data-name="Layer 2"><g id="events"><circle class="cls-1" cx="28" cy="22" r="6"/><path class="cls-1" d="M36.47,30.14a10.72,10.72,0,0,0-3.19,0c-.62.28-1.44,1.94-1.44,1.94l-2.4,3.22a1.93,1.93,0,0,1-2.87,0l-2.4-3.22s-.83-1.66-1.45-1.94a9,9,0,0,0-2.68,0c-3.32,0-6,2.13-6,4.73V50.63c0,.54,5.62.87,6.32.87l17.61,0c1.42,0,4.13-.55,4.07-.89V34.48C42,32.09,39.51,30.14,36.47,30.14Z"/><path class="cls-1" d="M51.76,4A2.25,2.25,0,0,1,54,6.24V51.76A2.25,2.25,0,0,1,51.76,54H4.24A2.25,2.25,0,0,1,2,51.76V6.24A2.25,2.25,0,0,1,4.24,4H51.76m0-2H4.24A4.26,4.26,0,0,0,0,6.24V51.76A4.26,4.26,0,0,0,4.24,56H51.76A4.26,4.26,0,0,0,56,51.76V6.24A4.26,4.26,0,0,0,51.76,2Z"/><rect class="cls-1" y="11.2" width="56" height="2.8" rx="0.84"/><rect class="cls-2" x="39.94" width="2.03" height="6" rx="0.96"/><rect class="cls-2" x="11.97" width="2.03" height="6" rx="0.96"/></g></g></svg>