<?xml version="1.0" encoding="utf-8"?>
<!-- Generator: Adobe Illustrator 26.0.3, SVG Export Plug-In . SVG Version: 6.00 Build 0)  -->
<svg version="1.1" id="instagram" xmlns="http://www.w3.org/2000/svg" xmlns:xlink="http://www.w3.org/1999/xlink" x="0px" y="0px"
	 viewBox="0 0 46 46" style="enable-background:new 0 0 46 46;" xml:space="preserve">
<style type="text/css">
	.st0{fill:#F5F5F5;}
</style>
<path id="border-square" class="st0" d="M23,4.1c6.1,0,6.9,0,9.3,0.1c1.5,0,2.9,0.3,4.3,0.8c1,0.4,1.9,1,2.6,1.7
	c0.8,0.7,1.3,1.6,1.7,2.6c0.5,1.4,0.8,2.8,0.8,4.3c0.1,2.4,0.1,3.2,0.1,9.3s0,6.9-0.1,9.3c0,1.5-0.3,2.9-0.8,4.3
	c-0.8,2-2.3,3.6-4.4,4.4c-1.4,0.5-2.8,0.8-4.3,0.8c-2.4,0.1-3.2,0.1-9.3,0.1s-6.9,0-9.3-0.1c-1.5,0-2.9-0.3-4.3-0.8
	c-1-0.4-1.9-0.9-2.6-1.7c-0.8-0.7-1.4-1.6-1.7-2.6c-0.5-1.4-0.8-2.8-0.8-4.3c-0.1-2.4-0.1-3.2-0.1-9.3s0-6.9,0.1-9.3
	c0-1.5,0.3-2.9,0.8-4.3c0.8-2,2.4-3.6,4.4-4.4c1.4-0.5,2.8-0.8,4.3-0.8C16.1,4.1,16.9,4.1,23,4.1 M23,0c-6.3,0-7,0-9.5,0.1
	c-1.9,0-3.8,0.4-5.6,1.1c-3,1.2-5.5,3.7-6.7,6.7c-0.7,1.8-1,3.7-1.1,5.6C0,16,0,16.8,0,23s0,7,0.1,9.5c0,1.9,0.4,3.8,1.1,5.6
	c0.6,1.5,1.5,2.9,2.6,4.1c1.2,1.2,2.5,2.1,4.1,2.6c1.8,0.7,3.7,1,5.6,1.1C16,46,16.8,46,23,46s7,0,9.5-0.1c1.9,0,3.8-0.4,5.6-1.1
	c3.1-1.2,5.5-3.6,6.7-6.7c0.7-1.8,1-3.7,1.1-5.6C46,30,46,29.3,46,23s0-7-0.1-9.5c0-1.9-0.4-3.8-1.1-5.6c-0.6-1.5-1.5-2.9-2.6-4.1
	s-2.5-2.1-4.1-2.6c-1.8-0.7-3.7-1-5.6-1.1C30,0,29.3,0,23,0"/>
<path id="border-circle" class="st0" d="M23,11.1c-6.5,0-11.8,5.3-11.8,11.8S16.5,34.7,23,34.7s11.8-5.3,11.8-11.8l0,0
	C34.8,16.4,29.6,11.1,23,11.1L23,11.1 M23,30.6c-4.2,0-7.7-3.4-7.7-7.7c0-4.2,3.4-7.7,7.7-7.7c4.2,0,7.7,3.4,7.7,7.7l0,0
	C30.7,27.2,27.2,30.6,23,30.6L23,30.6"/>
<path id="full-circle" class="st0" d="M38,10.6c-0.1,1.5-1.5,2.7-3,2.5c-1.3-0.1-2.4-1.2-2.5-2.5c-0.1-1.5,1-2.9,2.5-3s2.9,1,3,2.5
	C38.1,10.3,38.1,10.5,38,10.6"/>
</svg>
