<?xml version="1.0" encoding="utf-8"?>
<!-- Generator: Adobe Illustrator 26.0.3, SVG Export Plug-In . SVG Version: 6.00 Build 0)  -->
<svg version="1.1" id="Layer_1" xmlns="http://www.w3.org/2000/svg" xmlns:xlink="http://www.w3.org/1999/xlink" x="0px" y="0px"
	 viewBox="0 0 183.4 82.1" style="enable-background:new 0 0 183.4 82.1;" xml:space="preserve">
<style type="text/css">
	.st0{fill:#939598;}
	.st1{fill:#808285;}
	.st2{fill:#D1D3D4;}
	.st3{fill:#464547;}
	.st4{fill:#58595B;}
	.st5{fill:#FDC07F;}
	.st6{fill:#E6A13B;}
	.st7{fill:#FBB040;}
</style>
<g id="XMLID_93_">
	<g id="XMLID_103_">
		<g id="XMLID_105_">
			<path id="XMLID_107_" class="st0" d="M106.3,56.6c7.7-7.1,19.7-15.3,36.8-19c2.3-11.3,0.9-24.3,0.9-24.3
				c-35,18.6-47.7,49.2-51.2,59.9C95.2,69,99.6,62.8,106.3,56.6z"/>
			<path id="XMLID_106_" class="st1" d="M91.7,82.1c0,0,38.7-10.9,91.7,0c0,0-3.4-9.2-9.8-12.4c0,0-36.1-11-79.9,9.9
				C93.7,79.6,92.3,81,91.7,82.1z"/>
			<path id="XMLID_108_" class="st0" d="M93.1,79c24.9-13.5,48.6-18.7,79.7-11.4C137.5,50.9,114.4,59,93.1,79z"/>
			<path id="XMLID_109_" class="st0" d="M93.7,75.7c2.9-2.6,5.7-4.9,8.6-6.9c0,0,0,0,0,0c0,0,24.8-25,54.3-25.7
				c0,0,1.5,4.9-3.6,15.2c0.5,0.1,1,0.2,1.5,0.4c6-7.2,11-21.1,11-21.1C119.4,36.3,99,66.2,93.7,75.7z"/>
			<path id="XMLID_110_" class="st2" d="M93.7,79.6c0,0,40.3-13.3,86.8-3c-1.6-2.6-4-5.4-6.9-6.9C173.6,69.7,137.5,58.7,93.7,79.6z"
				/>
			<path id="XMLID_111_" class="st2" d="M137.5,33.5c3.1-3.4,6.4-20.4,6.4-20.4c-35,18.6-47.7,49.2-51.2,59.9
				C106.9,41.6,137.5,33.5,137.5,33.5z"/>
			<path id="XMLID_112_" class="st2" d="M93.1,79c18.7-12,44.7-23.8,79.7-11.4C137.5,50.9,114.4,59,93.1,79z"/>
			<g id="XMLID_113_">
				<path id="XMLID_114_" class="st3" d="M102.2,68.8C102.2,68.8,102.2,68.8,102.2,68.8L102.2,68.8
					C102.2,68.8,102.2,68.8,102.2,68.8z"/>
				<path id="XMLID_115_" class="st2" d="M158,41.9c-33.4-1.8-55.8,26.9-55.8,26.9s24.8-25,54.3-25.7c0,0,1.5,4.9-3.6,15.2
					C158.2,50.3,158,41.9,158,41.9z"/>
			</g>
		</g>
		<g id="XMLID_116_">
			<path id="XMLID_125_" class="st0" d="M77.1,56.6c-7.7-7.1-19.7-15.3-36.8-19c-2.3-11.3-0.9-24.3-0.9-24.3
				c35,18.6,47.7,49.2,51.2,59.9C88.1,69,83.8,62.8,77.1,56.6z"/>
			<path id="XMLID_124_" class="st1" d="M91.7,82.1c0,0-38.7-10.9-91.7,0c0,0,3.4-9.2,9.8-12.4c0,0,36.1-11,79.9,9.9
				C89.6,79.6,91.1,81,91.7,82.1z"/>
			<path id="XMLID_123_" class="st0" d="M90.3,79C65.5,65.5,41.7,60.3,10.7,67.6C45.8,50.9,68.9,59,90.3,79z"/>
			<path id="XMLID_122_" class="st0" d="M89.7,75.7c-2.9-2.6-5.7-4.9-8.6-6.9c0,0,0,0,0,0c0,0-24.8-25-54.3-25.7
				c0,0-1.5,4.9,3.6,15.2c-0.5,0.1-1,0.2-1.5,0.4c-6-7.2-11-21.1-11-21.1C64,36.3,84.4,66.2,89.7,75.7z"/>
			<path id="XMLID_121_" class="st2" d="M89.6,79.6c0,0-40.3-13.3-86.8-3c1.6-2.6,4-5.4,6.9-6.9C9.8,69.7,45.8,58.7,89.6,79.6z"/>
			<path id="XMLID_120_" class="st2" d="M45.8,33.5c-3.1-3.4-6.4-20.4-6.4-20.4c35,18.6,47.7,49.2,51.2,59.9
				C76.5,41.6,45.8,33.5,45.8,33.5z"/>
			<path id="XMLID_119_" class="st2" d="M90.3,79C71.6,67,45.6,55.2,10.7,67.6C45.8,50.9,68.9,59,90.3,79z"/>
			<g id="XMLID_117_">
				<path id="XMLID_118_" class="st3" d="M81.2,68.8C81.2,68.8,81.2,68.8,81.2,68.8L81.2,68.8C81.2,68.8,81.2,68.8,81.2,68.8z"/>
				<path id="XMLID_126_" class="st2" d="M25.4,41.9C58.8,40,81.2,68.8,81.2,68.8s-24.8-25-54.3-25.7c0,0-1.5,4.9,3.6,15.2
					C25.2,50.3,25.4,41.9,25.4,41.9z"/>
			</g>
		</g>
	</g>
	<g id="XMLID_127_">
		<g id="XMLID_169_">
			<path id="XMLID_171_" class="st4" d="M91.7,52.3c-0.5,0-1-0.1-1.4-0.2l1.4,3.2l1.4-3.2C92.7,52.3,92.2,52.3,91.7,52.3z"/>
			<path id="XMLID_170_" class="st5" d="M91.7,51.7c0.6,0,1.2-0.1,1.8-0.3L98.5,40c-0.4,0.2-0.8,0.3-1.2,0.3H97
				c-1,0-1.9-0.6-2.4-1.4c-0.5,0.9-1.4,1.4-2.4,1.4h-0.9c-1,0-1.9-0.6-2.4-1.4c-0.5,0.9-1.4,1.4-2.4,1.4h-0.3
				c-0.4,0-0.9-0.1-1.2-0.3l5.1,11.4C90.5,51.6,91.1,51.7,91.7,51.7z"/>
		</g>
		<path id="XMLID_134_" class="st6" d="M86.1,39.7h0.3c1.2,0,2.1-1,2.1-2.1V11.9c-1.6,0.2-3.1,0.5-4.6,1v24.7
			C83.9,38.7,84.9,39.7,86.1,39.7z"/>
		<path id="XMLID_135_" class="st7" d="M91.2,39.7h0.9c1.2,0,2.1-1,2.1-2.1V11.6c-0.5,0-1,0-1.5,0c-1.2,0-2.5,0.1-3.7,0.2v25.7
			C89.1,38.7,90.1,39.7,91.2,39.7z"/>
		<path id="XMLID_136_" class="st6" d="M97,39.7h0.3c1.2,0,2.1-1,2.1-2.1V12.3c-1.5-0.3-3-0.5-4.6-0.6v25.9
			C94.8,38.7,95.8,39.7,97,39.7z"/>
	</g>
	<path id="XMLID_129_" class="st6" d="M91.7,3.6c15.5,0,29.3,6.8,38.2,17.4C121.8,8.3,107.7,0,91.7,0S61.6,8.3,53.5,20.9
		C62.4,10.3,76.2,3.6,91.7,3.6z"/>
</g>
</svg>
