<?xml version="1.0" encoding="utf-8"?>
<!-- Generator: Adobe Illustrator 26.0.3, SVG Export Plug-In . SVG Version: 6.00 Build 0)  -->
<svg version="1.1" id="twitter" xmlns="http://www.w3.org/2000/svg" xmlns:xlink="http://www.w3.org/1999/xlink" x="0px" y="0px"
	 viewBox="0 0 46 37.5" style="enable-background:new 0 0 46 37.5;" xml:space="preserve">
<style type="text/css">
	.st0{fill:#F5F5F5;}
</style>
<path id="bird" class="st0" d="M0,33.3c12.5,8,29.1,4.4,37.1-8.1c3-4.7,4.5-10.2,4.2-15.7c1.8-1.3,3.4-3,4.7-4.9
	c-1.7,0.8-3.5,1.3-5.4,1.5c2-1.2,3.5-3,4.2-5.2c-1.8,1.1-3.9,1.9-6,2.3C35.3-0.7,29.3-1,25.4,2.5c-2.6,2.3-3.7,5.9-2.8,9.3
	C15.1,11.3,8,7.7,3.2,1.8C0.7,6.2,2,11.6,6.1,14.4c-1.5-0.1-2.9-0.5-4.2-1.2c-0.1,4.5,3.1,8.5,7.6,9.4C8.1,23,6.7,23,5.3,22.8
	c1.2,3.8,4.8,6.5,8.8,6.6C10.1,32.5,5,33.9,0,33.3z"/>
</svg>
